# xmcd
#
# Track frame offsets:
#	183
#	11965
#	26078
#	37730
#	51648
#	63570
#	78710
#	89603
#	103578
#	121800
#	140048
#
# Disc length: 1997 seconds
#
# Revision: 2
# Processed by: cddbd v1.4PL0 Copyright (c) Steve Scherf et al.
# Submitted via: MusicWizard 6.0.2
#
DISCID=9d07cb0b
DTITLE=Waylon Jennings and Willie Nelson - Waylon and Willie
DYEAR=1978
DGENRE=Country
TTITLE0=Mammas, Don't Let Your Babies Grow Up To Be Cowboys
TTITLE1=The Year 2003 Minus 25
TTITLE2=Pick Up The Tempo
TTITLE3=If You Can Touch Her At All
TTITLE4=Lookin' For A Feeling
TTITLE5=It's Not Supposed To Be That Way
TTITLE6=I Can Get Off On You
TTITLE7=Don't Cuss The Fiddle
TTITLE8=Gold Dust Woman
TTITLE9=A Couple More Years
TTITLE10=The Wurlitzer Prize (I Don't Want To Get Over You)
EXTD=
EXTT0=
EXTT1=
EXTT2=
EXTT3=
EXTT4=
EXTT5=
EXTT6=
EXTT7=
EXTT8=
EXTT9=
EXTT10=
PLAYORDER=
